<svg width="24" height="24" viewBox="0 0 24 24" fill="none" xmlns="http://www.w3.org/2000/svg">
<g clip-path="url(#clip0_349_7777)">
<path d="M23.0204 3.02365C23.1703 3.20233 23.2082 3.44973 23.1188 3.66513L15.0613 23.0303C14.9547 23.2858 14.6925 23.441 14.4172 23.4113C14.1417 23.3815 13.9186 23.1737 13.8692 22.901L11.9531 12.3102L1.8565 8.58483C1.59657 8.48891 1.43068 8.23296 1.44912 7.95653C1.46764 7.68009 1.66585 7.44893 1.93622 7.38846L22.4057 2.8153L22.4907 2.80263C22.6908 2.7862 22.889 2.86719 23.0204 3.02365ZM4.2781 8.14511L12.381 11.1352L20.1768 4.59376L4.2781 8.14511ZM13.1845 12.0928L14.7215 20.5911L20.9803 5.55131L13.1845 12.0928Z" fill="black"/>
</g>
<defs>
<clipPath id="clip0_349_7777">
<rect width="24" height="24" fill="white"/>
</clipPath>
</defs>
</svg>
