<svg width="24" height="24" viewBox="0 0 24 24" fill="none" xmlns="http://www.w3.org/2000/svg">
<g clip-path="url(#clip0_349_7706)">
<path d="M13.4006 10.5498C13.6492 10.2188 14.1191 10.1521 14.4504 10.4004C14.7815 10.649 14.8483 11.1189 14.5998 11.4502C13.0911 13.4618 10.5684 16.4912 8.78634 18.7188C8.61471 18.9332 8.339 19.0365 8.06857 18.9883C7.7982 18.94 7.57537 18.7479 7.48849 18.4873L6.28829 14.8867C6.15776 14.4941 6.37034 14.0695 6.7629 13.9385C7.15584 13.8075 7.58111 14.0202 7.71212 14.4131L8.47872 16.7139C10.1594 14.6378 12.1342 12.2384 13.4006 10.5498Z" fill="#030616"/>
<path fill-rule="evenodd" clip-rule="evenodd" d="M19.8752 1.92435e-05C20.4173 -0.00163798 20.9551 0.103758 21.4563 0.310566C21.9574 0.517373 22.4129 0.821616 22.7961 1.2051C23.1795 1.58823 23.4829 2.04391 23.6897 2.54494C23.8964 3.04603 24.0019 3.58295 24.0002 4.12502C24.0002 5.50902 23.5243 6.91918 22.8723 8.28518C22.2203 9.65 21.3576 11.0419 20.5207 12.3887L20.5129 12.4024C19.6639 13.7703 18.8436 15.0931 18.2326 16.3721C17.6186 17.6551 17.2502 18.822 17.2502 19.875C17.2502 20.3285 17.3684 20.7744 17.592 21.169C17.8156 21.5635 18.1376 21.8939 18.5266 22.127C18.9155 22.3599 19.3585 22.488 19.8117 22.499C20.265 22.5101 20.7136 22.4033 21.1135 22.1895C21.5133 21.9757 21.8514 21.6624 22.094 21.2793C22.3365 20.8961 22.4751 20.4559 22.4973 20.0029C22.5194 19.5501 22.4238 19.0993 22.2199 18.6944C22.016 18.2893 21.7103 17.9443 21.3332 17.6924C21.2515 17.6377 21.1818 17.5671 21.1272 17.4854C21.0725 17.4035 21.034 17.3114 21.0149 17.2149C20.9957 17.1182 20.9956 17.0185 21.0149 16.9219C21.0341 16.8253 21.0724 16.7333 21.1272 16.6514C21.1819 16.5696 21.2523 16.499 21.3342 16.4444C21.4161 16.3897 21.5082 16.3522 21.6047 16.333C21.7013 16.3139 21.8011 16.3138 21.8977 16.333C21.9941 16.3523 22.0855 16.3907 22.1672 16.4453C22.9024 16.9373 23.4603 17.6524 23.758 18.4854C24.0558 19.3185 24.0783 20.2257 23.8215 21.0723C23.5647 21.9187 23.0425 22.6604 22.3322 23.1875C21.6218 23.7148 20.7599 23.9994 19.8752 24H4.50021C3.40646 23.9999 2.35766 23.5653 1.58419 22.792C0.810605 22.0184 0.375208 20.969 0.375208 19.875C0.375223 17.641 1.63404 15.2187 2.96603 12.9727C3.31394 12.3868 3.66792 11.811 4.01583 11.2451C4.81583 9.94115 5.58239 8.69184 6.15939 7.50686H3.39083C2.56783 7.50686 1.50445 7.3137 0.823451 6.4717C0.282748 5.81001 -0.00893215 4.97949 0.00020849 4.12502C0.000218637 3.03101 0.435614 1.98161 1.20919 1.20803C1.98265 0.434725 3.03148 0.000129757 4.12521 1.92435e-05H19.8752ZM19.8752 1.50002C19.1793 1.50013 18.5119 1.77658 18.0197 2.26857C17.5275 2.76085 17.2502 3.42884 17.2502 4.12502C17.2502 4.98986 17.6715 5.63385 18.4172 6.13381C18.5507 6.22328 18.6522 6.35356 18.7063 6.5049C18.7602 6.65617 18.7646 6.82093 18.718 6.97463C18.6713 7.12845 18.5756 7.2636 18.4465 7.35939C18.3175 7.45504 18.1608 7.50673 18.0002 7.50686H7.81271C7.16271 8.98985 6.18856 10.576 5.23556 12.126C4.90156 12.67 4.57007 13.2093 4.25607 13.7383C2.90108 16.0253 1.87522 18.109 1.87521 19.875C1.87521 20.5712 2.15246 21.2392 2.64474 21.7315C3.1369 22.2235 3.80429 22.4999 4.50021 22.5H16.6936C16.0827 21.7618 15.7488 20.8332 15.7502 19.875C15.7502 18.495 16.2261 17.0886 16.8781 15.7246C17.5271 14.3667 18.3879 12.9816 19.2219 11.6387L19.2385 11.6113C20.0875 10.2443 20.9078 8.91869 21.5188 7.63869C22.1327 6.35383 22.5002 5.18192 22.5002 4.12502C22.5015 3.78006 22.4353 3.43813 22.3039 3.11916C22.1725 2.80008 21.9786 2.50966 21.7346 2.26564C21.4907 2.02181 21.2009 1.82869 20.882 1.69728C20.563 1.56583 20.2203 1.4987 19.8752 1.50002ZM4.12521 1.50002C3.42931 1.50013 2.7619 1.77658 2.26974 2.26857C1.77747 2.76085 1.50022 3.42884 1.50021 4.12502C1.49021 4.63602 1.66351 5.13334 1.98751 5.52834C2.24154 5.84127 2.72794 6.00686 3.38986 6.00686H16.2492C15.9156 5.43639 15.743 4.78585 15.7502 4.12502C15.749 3.16686 16.0829 2.23834 16.6936 1.50002H4.12521Z" fill="#030616"/>
</g>
<defs>
<clipPath id="clip0_349_7706">
<rect width="24" height="24" fill="white"/>
</clipPath>
</defs>
</svg>
