<svg width="70" height="40" viewBox="0 0 70 40" fill="none" xmlns="http://www.w3.org/2000/svg">
<path d="M14 4.36035C23.2322 4.36035 28.7519 14.9485 23.751 22.0322L15.0879 34.3018C14.5812 35.0193 13.4188 35.0193 12.9121 34.3018L4.24902 22.0322C-0.751894 14.9485 4.7678 4.36035 14 4.36035Z" fill="white" stroke="#1DCF91" stroke-width="0.72"/>
<path d="M13.4579 22.2397C13.5904 22.2397 13.6979 22.3472 13.6979 22.4797V23.62C13.6979 23.7525 13.5904 23.86 13.4579 23.86H12.3779C12.2453 23.86 12.1379 23.7525 12.1379 23.62V22.4797C12.1379 22.3472 12.2453 22.2397 12.3779 22.2397H13.4579Z" fill="url(#paint0_linear_528_805)"/>
<path d="M15.6179 22.2397C15.7504 22.2397 15.8579 22.3472 15.8579 22.4797V23.62C15.8579 23.7525 15.7504 23.86 15.6179 23.86H14.5379C14.4053 23.86 14.2979 23.7525 14.2979 23.62V22.4797C14.2979 22.3472 14.4053 22.2397 14.5379 22.2397H15.6179Z" fill="url(#paint1_linear_528_805)"/>
<path d="M13.5779 20.14C13.6441 20.14 13.6979 20.1937 13.6979 20.26V21.4597C13.6979 21.5922 13.5904 21.6997 13.4579 21.6997H12.3779C12.2453 21.6997 12.1379 21.5923 12.1379 21.4597V20.44C12.1379 20.2743 12.2722 20.14 12.4379 20.14H13.5779Z" fill="url(#paint2_linear_528_805)"/>
<path d="M15.5579 20.14C15.7235 20.14 15.8579 20.2743 15.8579 20.44V21.4597C15.8579 21.5922 15.7504 21.6997 15.6179 21.6997H14.5379C14.4053 21.6997 14.2979 21.5923 14.2979 21.4597V20.26C14.2979 20.1937 14.3516 20.14 14.4179 20.14H15.5579Z" fill="url(#paint3_linear_528_805)"/>
<path d="M13.9999 6.16C14.1325 6.16 14.2399 6.26745 14.2399 6.4V6.88C14.2399 6.90189 14.2369 6.92307 14.2314 6.94322C18.4977 7.05888 21.9756 10.3329 22.4116 14.5117C22.4353 14.7397 22.1295 14.8678 21.9437 14.7337C21.4318 14.3641 20.7616 14.14 20.0278 14.14C19.2396 14.14 18.5245 14.3986 18.0005 14.8184C17.8912 14.9059 17.7299 14.8976 17.6301 14.7994C16.8985 14.0791 15.5989 13.6 14.1178 13.6C12.5722 13.6 11.2244 14.1217 10.5132 14.8947C10.4085 15.0086 10.2243 15.0181 10.109 14.9149C9.57723 14.4385 8.81481 14.14 7.96781 14.14C7.23408 14.14 6.56384 14.3641 6.05203 14.7337C5.86621 14.8678 5.56034 14.7397 5.5841 14.5117C6.02027 10.3316 9.50022 7.05678 13.7684 6.94311C13.7629 6.923 13.7599 6.90184 13.7599 6.88V6.4C13.7599 6.26747 13.8674 6.16002 13.9999 6.16Z" fill="url(#paint4_linear_528_805)"/>
<path fill-rule="evenodd" clip-rule="evenodd" d="M14.1112 4.00053C23.55 4.08516 29.2049 14.9315 24.0447 22.2402L15.3821 34.5095L15.3511 34.552C15.3426 34.5632 15.3339 34.5741 15.3251 34.585C15.3166 34.5957 15.3079 34.6061 15.2992 34.6165C15.295 34.6214 15.291 34.6264 15.2868 34.6313C15.2824 34.6364 15.2779 34.6413 15.2735 34.6463C15.2663 34.6543 15.2593 34.6623 15.252 34.6702C15.2488 34.6737 15.2454 34.6771 15.2422 34.6806C15.234 34.6892 15.2258 34.6979 15.2175 34.7063C15.2121 34.7119 15.2065 34.7172 15.201 34.7226C15.1949 34.7287 15.1887 34.7349 15.1825 34.7409C15.1766 34.7464 15.1707 34.7519 15.1648 34.7573C15.1581 34.7635 15.1515 34.7697 15.1447 34.7757C15.14 34.7799 15.1352 34.784 15.1304 34.7882C15.1225 34.7951 15.1145 34.8021 15.1065 34.8088C15.1016 34.8129 15.0967 34.8169 15.0918 34.8209C15.0841 34.8272 15.0764 34.8334 15.0687 34.8395C15.0628 34.8442 15.0568 34.8487 15.0508 34.8533C15.0437 34.8587 15.0366 34.8642 15.0294 34.8695C15.0228 34.8743 15.0162 34.8791 15.0095 34.8838C15.0031 34.8884 14.9967 34.893 14.9903 34.8975C14.9828 34.9026 14.9753 34.9077 14.9678 34.9127C14.9617 34.9168 14.9556 34.9209 14.9494 34.925C14.9422 34.9296 14.935 34.9341 14.9278 34.9386C14.9205 34.9432 14.9132 34.9477 14.9058 34.9522C14.8999 34.9557 14.894 34.9593 14.8881 34.9628C14.8797 34.9677 14.8713 34.9725 14.8629 34.9773C14.8573 34.9805 14.8516 34.9836 14.846 34.9867C14.8372 34.9915 14.8284 34.9963 14.8196 35.0009C14.8136 35.004 14.8076 35.0071 14.8016 35.0102C14.7936 35.0143 14.7855 35.0183 14.7775 35.0223C14.7701 35.0259 14.7626 35.0295 14.7552 35.033C14.7482 35.0363 14.7412 35.0395 14.7342 35.0427C14.7268 35.046 14.7194 35.0494 14.712 35.0526C14.7038 35.0562 14.6956 35.0597 14.6873 35.0632C14.6806 35.066 14.6739 35.0688 14.6672 35.0715C14.6589 35.0748 14.6507 35.0781 14.6424 35.0813C14.6357 35.0839 14.6289 35.0865 14.6222 35.089C14.6136 35.0922 14.605 35.0953 14.5963 35.0983C14.5892 35.1009 14.5821 35.1034 14.5749 35.1058C14.5675 35.1084 14.5601 35.1108 14.5526 35.1132C14.5442 35.1159 14.5357 35.1186 14.5271 35.1213C14.52 35.1234 14.5129 35.1255 14.5057 35.1276C14.4978 35.13 14.4899 35.1323 14.4819 35.1345C14.474 35.1367 14.466 35.1388 14.4581 35.1409C14.4499 35.143 14.4418 35.1452 14.4336 35.1472C14.4266 35.1489 14.4195 35.1506 14.4125 35.1522C14.4039 35.1543 14.3954 35.1563 14.3868 35.1582C14.3777 35.1602 14.3686 35.162 14.3595 35.1638C14.3532 35.1651 14.3469 35.1664 14.3405 35.1677C14.3316 35.1694 14.3226 35.1709 14.3137 35.1725C14.306 35.1739 14.2983 35.1753 14.2906 35.1765C14.282 35.1779 14.2735 35.1791 14.2649 35.1804C14.2578 35.1814 14.2508 35.1825 14.2438 35.1835C14.2349 35.1847 14.2259 35.1857 14.217 35.1868C14.2094 35.1877 14.2017 35.1887 14.1941 35.1895C14.1826 35.1907 14.1711 35.1918 14.1596 35.1928C14.1556 35.1931 14.1516 35.1936 14.1476 35.194C14.135 35.195 14.1224 35.1958 14.1098 35.1965C14.1058 35.1968 14.1018 35.1971 14.0978 35.1973C14.0903 35.1977 14.0829 35.1979 14.0754 35.1982C14.0251 35.2003 13.9747 35.2003 13.9245 35.1982C13.917 35.1979 13.9095 35.1977 13.9021 35.1973C13.8981 35.1971 13.8941 35.1968 13.8901 35.1965C13.8775 35.1958 13.8648 35.195 13.8523 35.194C13.8482 35.1936 13.8441 35.1932 13.84 35.1928C13.8286 35.1918 13.8172 35.1907 13.8058 35.1895C13.7982 35.1887 13.7906 35.1877 13.7831 35.1868C13.7741 35.1857 13.765 35.1847 13.7561 35.1835C13.7486 35.1825 13.7412 35.1813 13.7337 35.1802C13.7257 35.179 13.7177 35.1779 13.7097 35.1766C13.7013 35.1752 13.693 35.1737 13.6847 35.1722C13.6764 35.1708 13.6681 35.1694 13.6599 35.1678C13.6527 35.1664 13.6456 35.1649 13.6384 35.1634C13.6301 35.1618 13.6219 35.1601 13.6136 35.1583C13.6049 35.1564 13.5962 35.1543 13.5875 35.1522C13.5802 35.1505 13.5729 35.1489 13.5657 35.1471C13.5582 35.1452 13.5508 35.1432 13.5434 35.1413C13.5347 35.139 13.5259 35.1367 13.5172 35.1343C13.5105 35.1324 13.5039 35.1305 13.4973 35.1286C13.4882 35.1259 13.4791 35.1232 13.4701 35.1204C13.4636 35.1184 13.4572 35.1163 13.4508 35.1143C13.442 35.1115 13.4333 35.1087 13.4246 35.1057C13.4172 35.1032 13.4098 35.1006 13.4024 35.098C13.3945 35.0952 13.3865 35.0923 13.3786 35.0893C13.3715 35.0867 13.3644 35.084 13.3573 35.0812C13.3488 35.078 13.3404 35.0746 13.332 35.0712C13.3255 35.0686 13.319 35.0659 13.3126 35.0632C13.3046 35.0599 13.2965 35.0564 13.2885 35.0529C13.2809 35.0496 13.2732 35.0462 13.2656 35.0427C13.2582 35.0394 13.2508 35.0359 13.2434 35.0324C13.2368 35.0293 13.2302 35.0261 13.2236 35.0229C13.2151 35.0188 13.2068 35.0145 13.1984 35.0103C13.192 35.007 13.1856 35.0037 13.1792 35.0003C13.1712 34.9961 13.1631 34.9918 13.1552 34.9874C13.149 34.984 13.1428 34.9806 13.1366 34.9771C13.1283 34.9724 13.12 34.9676 13.1118 34.9628C13.1059 34.9593 13.1001 34.9558 13.0942 34.9523C13.0863 34.9475 13.0784 34.9426 13.0705 34.9377C13.0643 34.9338 13.0581 34.9298 13.0519 34.9258C13.0446 34.9212 13.0375 34.9164 13.0303 34.9115C13.0234 34.9069 13.0164 34.9022 13.0096 34.8974C13.0038 34.8934 12.998 34.8893 12.9923 34.8852C12.9846 34.8797 12.9768 34.8742 12.9692 34.8685C12.9632 34.8641 12.9573 34.8595 12.9513 34.855C12.9446 34.8498 12.9378 34.8447 12.9311 34.8394C12.9233 34.8333 12.9157 34.8271 12.9081 34.8209C12.9032 34.8169 12.8982 34.8129 12.8934 34.8088C12.8853 34.8021 12.8774 34.7951 12.8694 34.7882C12.8646 34.784 12.8598 34.7799 12.8551 34.7757C12.8484 34.7697 12.8417 34.7635 12.8351 34.7573C12.8292 34.7519 12.8232 34.7464 12.8174 34.7409C12.8111 34.7349 12.805 34.7287 12.7988 34.7226C12.7933 34.7172 12.7878 34.7119 12.7823 34.7063C12.774 34.6979 12.7658 34.6892 12.7577 34.6806C12.7544 34.6771 12.7511 34.6737 12.7479 34.6703C12.7133 34.6328 12.6802 34.5934 12.6489 34.552L12.6178 34.5095L3.95525 22.2402C-1.22518 14.9029 4.4944 4 14 4L14.1112 4.00053ZM9.43787 20.4198V23.7324C11.0229 24.3236 12.4363 25.0344 13.6312 25.84H14.3687C15.5625 25.0351 16.9745 24.3248 18.5579 23.734V20.4198L13.9979 16.752L9.43787 20.4198ZM14 4.72C5.04083 4.72 -0.278909 14.9948 4.54342 21.8249L5.01439 22.492C6.23036 22.7345 7.38937 23.0381 8.47787 23.396V19.96L13.9979 15.52L19.5179 19.96V23.3974C20.6076 23.0389 21.768 22.7348 22.9855 22.492L23.4565 21.8249C28.2789 14.9948 22.9591 4.72002 14 4.72Z" fill="url(#paint5_linear_528_805)"/>
<path d="M37.619 19.115C36.6057 19.115 35.7127 18.9503 34.94 18.621C34.1673 18.279 33.572 17.7976 33.154 17.177C32.736 16.5563 32.527 15.8343 32.527 15.011C32.527 14.2003 32.736 13.491 33.154 12.883C33.572 12.275 34.1673 11.8063 34.94 11.477C35.7127 11.135 36.6057 10.964 37.619 10.964H40.393C41.419 10.964 42.3183 11.135 43.091 11.477C43.8637 11.8063 44.459 12.275 44.877 12.883C45.295 13.491 45.504 14.2003 45.504 15.011C45.504 15.8343 45.295 16.5563 44.877 17.177C44.459 17.7976 43.8637 18.279 43.091 18.621C42.3183 18.9503 41.419 19.115 40.393 19.115H37.619ZM37.961 12.617C36.8463 12.617 35.9787 12.8323 35.358 13.263C34.7373 13.6936 34.427 14.2826 34.427 15.03C34.427 15.7773 34.7373 16.3726 35.358 16.816C35.9787 17.2466 36.8463 17.462 37.961 17.462H40.07C41.172 17.462 42.0397 17.2403 42.673 16.797C43.3063 16.3536 43.623 15.7646 43.623 15.03C43.623 14.2826 43.3063 13.6936 42.673 13.263C42.0397 12.8323 41.172 12.617 40.07 12.617H37.961ZM30.722 21.357H47.29V23.086H39.956V28.216H38.075V23.086H30.722V21.357Z" fill="black"/>
<path d="M63.839 10.394V14.821H66.575V16.531H63.839V23.599H61.939V10.394H63.839ZM54.491 17.044C53.6043 18.4753 52.249 19.799 50.425 21.015L49.361 19.552C50.9063 18.5133 52.0463 17.4176 52.781 16.265C53.5157 15.1123 53.883 13.833 53.883 12.427V11.059H55.726V12.427C55.726 13.491 55.5677 14.4726 55.251 15.372L60.191 19.229L59.108 20.654L54.491 17.044ZM52.534 22.497H54.434V26.297H64.751V28.026H52.534V22.497Z" fill="black"/>
<defs>
<linearGradient id="paint0_linear_528_805" x1="14" y1="4" x2="14" y2="35.1998" gradientUnits="userSpaceOnUse">
<stop stop-color="#3959FF"/>
<stop offset="1" stop-color="#22D394"/>
</linearGradient>
<linearGradient id="paint1_linear_528_805" x1="14" y1="4" x2="14" y2="35.1998" gradientUnits="userSpaceOnUse">
<stop stop-color="#3959FF"/>
<stop offset="1" stop-color="#22D394"/>
</linearGradient>
<linearGradient id="paint2_linear_528_805" x1="14" y1="4" x2="14" y2="35.1998" gradientUnits="userSpaceOnUse">
<stop stop-color="#3959FF"/>
<stop offset="1" stop-color="#22D394"/>
</linearGradient>
<linearGradient id="paint3_linear_528_805" x1="14" y1="4" x2="14" y2="35.1998" gradientUnits="userSpaceOnUse">
<stop stop-color="#3959FF"/>
<stop offset="1" stop-color="#22D394"/>
</linearGradient>
<linearGradient id="paint4_linear_528_805" x1="14" y1="4" x2="14" y2="35.1998" gradientUnits="userSpaceOnUse">
<stop stop-color="#3959FF"/>
<stop offset="1" stop-color="#22D394"/>
</linearGradient>
<linearGradient id="paint5_linear_528_805" x1="14" y1="4" x2="14" y2="35.1998" gradientUnits="userSpaceOnUse">
<stop stop-color="#3959FF"/>
<stop offset="1" stop-color="#22D394"/>
</linearGradient>
</defs>
</svg>
