<svg width="56" height="56" viewBox="0 0 56 56" fill="none" xmlns="http://www.w3.org/2000/svg">
<g filter="url(#filter0_dd_1913_6911)">
<path d="M8 24C8 12.9543 16.9543 4 28 4C39.0457 4 48 12.9543 48 24C48 35.0457 39.0457 44 28 44C16.9543 44 8 35.0457 8 24Z" fill="white" shape-rendering="crispEdges"/>
<path d="M28 4.5C38.7696 4.5 47.5 13.2304 47.5 24C47.5 34.7696 38.7696 43.5 28 43.5C17.2304 43.5 8.5 34.7696 8.5 24C8.5 13.2304 17.2304 4.5 28 4.5Z" stroke="#FF7F24" shape-rendering="crispEdges"/>
<path d="M33.8337 31.5V29.8333C33.8337 28.9493 33.4825 28.1014 32.8573 27.4763C32.2322 26.8512 31.3844 26.5 30.5003 26.5H25.5003C24.6163 26.5 23.7684 26.8512 23.1433 27.4763C22.5182 28.1014 22.167 28.9493 22.167 29.8333V31.5" stroke="#FF7F24" stroke-width="1.66667" stroke-linecap="round" stroke-linejoin="round"/>
<path d="M28.0003 23.1667C29.8413 23.1667 31.3337 21.6743 31.3337 19.8333C31.3337 17.9924 29.8413 16.5 28.0003 16.5C26.1594 16.5 24.667 17.9924 24.667 19.8333C24.667 21.6743 26.1594 23.1667 28.0003 23.1667Z" stroke="#FF7F24" stroke-width="1.66667" stroke-linecap="round" stroke-linejoin="round"/>
</g>
<defs>
<filter id="filter0_dd_1913_6911" x="0" y="0" width="56" height="56" filterUnits="userSpaceOnUse" color-interpolation-filters="sRGB">
<feFlood flood-opacity="0" result="BackgroundImageFix"/>
<feColorMatrix in="SourceAlpha" type="matrix" values="0 0 0 0 0 0 0 0 0 0 0 0 0 0 0 0 0 0 127 0" result="hardAlpha"/>
<feMorphology radius="3" operator="dilate" in="SourceAlpha" result="effect1_dropShadow_1913_6911"/>
<feOffset/>
<feComposite in2="hardAlpha" operator="out"/>
<feColorMatrix type="matrix" values="0 0 0 0 1 0 0 0 0 1 0 0 0 0 1 0 0 0 0.9 0"/>
<feBlend mode="normal" in2="BackgroundImageFix" result="effect1_dropShadow_1913_6911"/>
<feColorMatrix in="SourceAlpha" type="matrix" values="0 0 0 0 0 0 0 0 0 0 0 0 0 0 0 0 0 0 127 0" result="hardAlpha"/>
<feOffset dy="4"/>
<feGaussianBlur stdDeviation="4"/>
<feComposite in2="hardAlpha" operator="out"/>
<feColorMatrix type="matrix" values="0 0 0 0 0 0 0 0 0 0 0 0 0 0 0 0 0 0 0.08 0"/>
<feBlend mode="normal" in2="effect1_dropShadow_1913_6911" result="effect2_dropShadow_1913_6911"/>
<feBlend mode="normal" in="SourceGraphic" in2="effect2_dropShadow_1913_6911" result="shape"/>
</filter>
</defs>
</svg>
